<svg width="40" height="40" viewBox="0 0 40 40" fill="none" xmlns="http://www.w3.org/2000/svg">
<rect width="40" height="40" rx="20" fill="#E8EDF2"/>
<g clip-path="url(#clip0_304_31)">
<path fill-rule="evenodd" clip-rule="evenodd" d="M20.9375 24.0625C20.9375 24.5803 20.5178 25 20 25C19.4822 25 19.0625 24.5803 19.0625 24.0625C19.0625 23.5447 19.4822 23.125 20 23.125C20.5178 23.125 20.9375 23.5447 20.9375 24.0625ZM20 15.625C18.2766 15.625 16.875 16.8867 16.875 18.4375V18.75C16.875 19.0952 17.1548 19.375 17.5 19.375C17.8452 19.375 18.125 19.0952 18.125 18.75V18.4375C18.125 17.5781 18.9664 16.875 20 16.875C21.0336 16.875 21.875 17.5781 21.875 18.4375C21.875 19.2969 21.0336 20 20 20C19.6548 20 19.375 20.2798 19.375 20.625V21.25C19.375 21.5952 19.6548 21.875 20 21.875C20.3452 21.875 20.625 21.5952 20.625 21.25V21.1938C22.05 20.932 23.125 19.7953 23.125 18.4375C23.125 16.8867 21.7234 15.625 20 15.625ZM28.125 20C28.125 24.4873 24.4873 28.125 20 28.125C15.5127 28.125 11.875 24.4873 11.875 20C11.875 15.5127 15.5127 11.875 20 11.875C24.4853 11.8797 28.1203 15.5146 28.125 20ZM26.875 20C26.875 16.203 23.797 13.125 20 13.125C16.203 13.125 13.125 16.203 13.125 20C13.125 23.797 16.203 26.875 20 26.875C23.7952 26.8707 26.8707 23.7952 26.875 20Z" fill="#0D141C"/>
</g>
<defs>
<clipPath id="clip0_304_31">
<rect width="20" height="20" fill="white" transform="translate(10 10)"/>
</clipPath>
</defs>
</svg>
