<svg width="40" height="40" viewBox="0 0 40 40" fill="none" xmlns="http://www.w3.org/2000/svg">
<rect width="40" height="40" rx="20" fill="#E8EDF2"/>
<path fill-rule="evenodd" clip-rule="evenodd" d="M24.0831 16C24.0831 13.794 22.2518 12 20 12C17.7482 12 15.9169 13.794 15.9169 16C15.9169 18.206 17.7482 20 20 20C22.2518 20 24.0831 18.206 24.0831 16ZM27.9458 30H26.1247C25.5612 30 25.1039 29.552 25.1039 29C25.1039 28.448 25.5612 28 26.1247 28H26.5626C27.269 28 27.7906 27.303 27.5232 26.662C26.287 23.698 23.3839 22 20 22C16.6161 22 13.713 23.698 12.4768 26.662C12.2094 27.303 12.731 28 13.4374 28H13.8753C14.4388 28 14.8961 28.448 14.8961 29C14.8961 29.552 14.4388 30 13.8753 30H12.0542C10.7783 30 9.77382 28.857 10.0443 27.636C10.7875 24.277 13.1077 21.798 16.1639 20.673C14.7695 19.574 13.8753 17.89 13.8753 16C13.8753 12.449 17.0234 9.61898 20.7339 10.042C23.4227 10.348 25.65 12.4469 26.0532 15.0699C26.4003 17.3309 25.4561 19.396 23.8361 20.673C26.8923 21.798 29.2125 24.277 29.9557 27.636C30.2262 28.857 29.2217 30 27.9458 30ZM23.0623 29C23.0623 29.552 22.605 30 22.0416 30H17.9584C17.395 30 16.9377 29.552 16.9377 29C16.9377 28.448 17.395 28 17.9584 28H22.0416C22.605 28 23.0623 28.448 23.0623 29Z" fill="black"/>
</svg>
