<svg width="24" height="24" viewBox="0 0 24 24" fill="none" xmlns="http://www.w3.org/2000/svg">
<path fill-rule="evenodd" clip-rule="evenodd" d="M4.30174 3.17157C3 4.34315 3 6.22876 3 10V14C3 17.7712 3 19.6569 4.30174 20.8284C5.6035 22 7.69862 22 11.8889 22H14.1111C18.3013 22 20.3966 22 21.6982 20.8284C23 19.6569 23 17.7712 23 14V10C23 6.22876 23 4.34315 21.6982 3.17157C20.3966 2 18.3013 2 14.1111 2H11.8889C7.69862 2 5.6035 2 4.30174 3.17157ZM7.72222 8C7.72222 7.58579 8.09532 7.25 8.55556 7.25H17.4444C17.9047 7.25 18.2778 7.58579 18.2778 8C18.2778 8.41421 17.9047 8.75 17.4444 8.75H8.55556C8.09532 8.75 7.72222 8.41421 7.72222 8ZM7.72222 12C7.72222 11.5858 8.09532 11.25 8.55556 11.25H17.4444C17.9047 11.25 18.2778 11.5858 18.2778 12C18.2778 12.4142 17.9047 12.75 17.4444 12.75H8.55556C8.09532 12.75 7.72222 12.4142 7.72222 12ZM8.55556 15.25C8.09532 15.25 7.72222 15.5858 7.72222 16C7.72222 16.4142 8.09532 16.75 8.55556 16.75H14.1111C14.5713 16.75 14.9444 16.4142 14.9444 16C14.9444 15.5858 14.5713 15.25 14.1111 15.25H8.55556Z" fill="#1C274C"/>
</svg>
