<svg width="22" height="22" viewBox="0 0 22 22" fill="none" xmlns="http://www.w3.org/2000/svg">
<g clip-path="url(#clip0_434_1585)">
<path d="M20.2456 6.07123H19.2463V11.4288H20.2456C20.9234 11.4288 21.4731 10.9528 21.4731 10.3658V7.13455C21.473 6.54724 20.9234 6.07123 20.2456 6.07123Z" fill="#1C274C"/>
<path d="M19.7196 0H18.3804H3.22661C2.25825 0 1.47314 0.679961 1.47314 1.51836V18.4814C1.47314 19.3201 2.25825 20 3.22661 20H16.6269C17.5953 20 18.3804 19.3201 18.3804 18.4814V5.35727H20.2457C20.9235 5.35727 21.4731 4.88152 21.4731 4.29449V1.51836C21.4731 0.679961 20.688 0 19.7196 0ZM9.90002 15.4792C6.62727 15.4792 4.37862 15.1112 4.34417 14.7577C4.20146 13.2804 6.41046 12.4927 7.30769 12.2187C7.74388 12.0862 8.48519 11.6107 8.48519 11.3298C8.48519 11.1431 8.48519 10.9099 8.48519 10.591C8.20718 10.3248 7.99777 9.78324 7.87342 9.17055C7.58088 9.08016 7.41436 8.93563 7.20716 8.30531C6.99391 7.65941 7.49582 7.65551 7.53542 7.65551C7.46582 7.2434 7.37016 6.4284 7.61922 6.01855C7.61922 6.01855 7.44909 5.75293 7.44909 5.39859C8.16429 5.48703 10.4474 4.21836 11.1294 5.2507C12.1174 5.16281 12.707 6.37039 12.2589 7.65551C12.2589 7.65551 12.8136 7.63289 12.5916 8.30531C12.3832 8.93563 12.2176 9.08012 11.9257 9.17055C11.8007 9.78328 11.5917 10.3248 11.3146 10.591C11.3146 10.9099 11.3146 11.1431 11.3146 11.3298C11.3146 11.6107 12.0121 12.0639 12.4902 12.2187C13.3832 12.5083 15.5971 13.2804 15.455 14.7577C15.4202 15.1112 13.1712 15.4792 9.90002 15.4792Z" fill="#1C274C"/>
</g>
<defs>
<clipPath id="clip0_434_1585">
<rect width="22" height="22" fill="white"/>
</clipPath>
</defs>
</svg>
